<?xml version="1.0" encoding="utf-8"?>
<!-- Generator: Adobe Illustrator 17.1.0, SVG Export Plug-In . SVG Version: 6.00 Build 0)  -->
<!DOCTYPE svg PUBLIC "-//W3C//DTD SVG 1.1//EN" "http://www.w3.org/Graphics/SVG/1.1/DTD/svg11.dtd">
<svg version="1.1" id="Layer_1" xmlns="http://www.w3.org/2000/svg" xmlns:xlink="http://www.w3.org/1999/xlink" x="0px" y="0px"
	 width="300px" height="300px" viewBox="0 0 300 300" enable-background="new 0 0 300 300" xml:space="preserve">
<g>
	<path fill="#D1D3D5" d="M272.6,182.7c-1.5-5.2-5.5-12.8-16.2-19.3l-6-3.6l0.2,7c0.1,1.7,0,3.5-0.2,4.8c-0.7-0.4-1.8-1-3-2.2
		c-2.7-2.6-6.5-6.6-8.6-9c1.2-2.6,3.2-7.1,5-13.2l2.2-0.6l1.7-9.4l-1.4-1.4c0.2-1.2,0.3-2.5,0.5-3.7l0-0.3c0,0,0,0,0,0l1.8-1
		l0.4-8.6l-1.7-1.2c0-1-0.1-2-0.1-3l1.6-1.7l-1.2-7.4l-1.8-1c-0.2-0.8-0.4-1.6-0.6-2.4l1.1-2l-2.6-7.6l-2.1-0.3
		c-0.1-0.1-0.1-0.2-0.2-0.3l0-0.1c-0.1-0.2-0.3-0.7-0.7-1.3l0.8-2.3l-4.2-6.6h-2.3c-0.3-0.4-0.7-0.9-1-1.3l0.2-2.7l-5-5h-2.3
		c-0.5-0.5-1.1-1-1.6-1.5l0.3-2.5l-7.9-5.2l-1.3,0.8c-0.2-0.1-0.4-0.2-0.5-0.4c-2.1-1.4-5-3.3-6.6-5.5c-1.9-2.6-2.4-5.4-1.9-6.6
		c0.5-1,4.3-1.3,6.1-1.4c4.4-0.3,7.3-0.7,11.3-4.1c2.3-2,3.5-4.9,3.2-8c-0.3-3.2-2-6.1-4.6-7.6c-1-0.6-2-1-2.9-1.4
		c-1.4-0.6-2.3-1-3.2-2c0.1-2.2,0.1-6.3-0.7-9.3c-1.3-4.8-6.1-8.4-12-8.9c-0.6-0.1-1.2-0.1-1.7-0.1c-5.6,0-7.4,3.2-8.5,6
		c-0.8,2.3-1.6,4-4.4,7.4c-3,1.6-12.6,7.7-16.1,21.1c-1,3.9-3.6,17.8,6.1,30.1c2.6,3.3,5.6,6.2,8.8,8.6c-0.2,0.1-0.5,0.1-0.7,0.2
		c-0.5,0.2-1,0.4-5.6,4c-2.8-1.7-7.5-4.6-9.4-5.7c-0.3-0.2-0.6-0.4-0.9-0.6c-2.4-1.5-5.1-3.1-11.2-3.1c-0.4,0-0.9,0-1.4,0
		c-7.9,0.3-14.5,2-28.2,10c-3-0.8-9.8-2.6-20.4-4.4c-4.9-0.8-9-1.3-12.6-1.3c-5.6,0-8.7,1-11,1.8l-0.5,0.2c-0.2,0.1-0.5,0.2-0.8,0.2
		c-4.5,1.4-15,4.6-34.1,16.3c-0.4,0.3-10.4,6.4-22,17l0,0c-2,1.9-5.4,5-5.6,8.8c-0.1,3.5,1.1,6.5,4,9.9c2.1,2.5,4.2,3.8,5.7,4.8
		c0.6,0.4,1.1,0.7,1.5,1c0.5,0.4,2,2,6.5,8.1c1.6,2.2,1.6,2.3,1.9,3.1c0.1,0.2,0.1,0.4,0.2,0.7c0.3,0.9,1.2,3.4,2.6,7.4
		c1.4,3.9,2.9,8.3,3.6,10.5c0.8,2.5,2,5.6,2.8,7.9c0.4,1.2,1,2.6,1,2.9c0.5,1.8,1.4,2.7,2,3.3c0.1,0.1,0.2,0.2,0.2,0.2
		c0.6,0.6,5,6.1,10.2,12.5c3.9,4.8,11,13.5,15.9,17.6c2.6,2.2,9.2,7.3,14.7,7.8c0.4,0,0.7,0,1.1,0c2.2,0,4.5-0.5,6.9-1.7l0.7,0.6
		c0.1,0.1,12.4,10.2,20.7,22.6c1.8,2.7,10.8,16.8,14.8,34.3l0.9,4.1l4-1.3c0.6-0.2,14.2-4.8,31.3-22.5c0.1-0.1,0.2-0.2,0.3-0.3
		c10.4-10.6,17.1-21,20.9-27.9l0.2-0.3c6.5-11.5,9.4-21.6,10.6-28.6c3.1-1.3,8.6-4.1,12.9-9.8c4.9,2.8,14.6,7.9,23.7,9.6
		c1.5,0.3,3.8,0.6,6.6,0.6c9.2,0,16.2-3.8,19.6-10.6C273.5,193.7,274.3,188.6,272.6,182.7z"/>
	<path fill="#5292CD" d="M254.5,166.6c0,0,0.2,6.4-1.1,8.2c-1.3,1.8-4.8,0.7-8.5-2.8c-3.7-3.5-9.2-9.6-10.5-11.3
		c0,0,3.7-6.4,6.4-16.7l2-0.5l0.9-5.1l-1.4-1.3c0.3-1.7,0.6-3.5,0.8-5.4c0.1-0.5,0.1-1.2,0.2-2.3l1.7-1l0.2-4.4l-1.6-1.1
		c0-1.9-0.1-4-0.3-6.3l1.4-1.6l-0.6-3.7l-1.7-0.9c-0.3-1.8-0.8-3.6-1.3-5.4l1-1.9l-1.3-3.9l-1.9-0.3c-0.3-0.7-0.6-1.4-1-2.1
		c-0.1-0.3-0.6-1.2-1.4-2.7l0.7-2.1l-2.1-3.3H233c-0.9-1.2-1.9-2.5-3-3.9l0.2-2.5l-2.7-2.7h-2.3c-1.3-1.2-2.6-2.5-4.1-3.8l0.2-2.2
		l-3.9-2.6l-1.3,0.8c-0.5-0.3-1-0.7-1.4-1c-2.4-1.6-6.3-4-8.6-7.1c-2.3-3.1-3.7-7.4-2.3-10.5c1.4-3,5.5-3.4,9.3-3.6
		c3.8-0.3,5.9-0.5,9.1-3.2c3.2-2.7,2-7.7-0.9-9.4c-2.9-1.7-5.6-1.6-8-5.6c0,0,0.5-5.9-0.5-9.4c-0.9-3.5-4.6-5.8-8.7-6.1
		c-4-0.3-5.3,0.7-6.3,3.5s-2,5-5.5,9.2c0,0-11.2,5-14.8,19c-1,3.7-3.1,15.9,5.4,26.8c2.3,2.9,7.4,8.8,15.9,12.5
		c3.5,1.5,5,2.8,5.8,4.3c0.8,1.6,0.3,4.2-0.4,5.4c0,0-4-4.9-8.4-6.5c-4.3-1.6-5.8-1.3-6.5-1s-6.7,5.1-6.7,5.1s-8.8-5.4-11.6-7.1
		c-2.8-1.6-4.7-3.4-11.5-3.2c-6.8,0.3-12.9,1.4-27.8,10.4c0,0-7.4-2.4-21.5-4.8c-14.1-2.4-18.8-0.6-22.3,0.5
		c-3.6,1.1-14,3.9-34.1,16.2c-1.6,1-10.9,6.9-21.4,16.6c-1.6,1.4-4.3,3.9-4.4,6.1c-0.1,2.2,0.5,4.3,3.1,7.3c2.6,3,5.1,4,6.8,5.4
		c1.6,1.4,4.8,5.6,7.1,8.7s2.1,3,2.7,4.9s4.8,13.7,6.2,17.8c1.3,4.1,3.6,9.9,3.9,10.9c0.3,1,0.8,1.3,1.4,2s5.9,7.2,10.4,12.7
		s11,13.4,15.4,17c4.3,3.7,9.3,6.6,12.6,6.9c3.4,0.3,6.8-1.4,9.3-3.1c2.6-1.7,6.4-4.7,7.1-5.3s1.4-1.1,0.9,0c-0.5,1.1-2.5,5-6.6,8.2
		c0,0,12.7,10.4,21.4,23.4c1.2,1.8,11,16.7,15.4,35.6c0,0,13.1-4.3,29.7-21.5c1.6-1.7,12.1-11.9,20.7-27.4c1.2-2.1,8.5-14.6,10.8-30
		c0,0,9.7-2.5,15.1-12.1c0,0,13.5,8.8,25.6,11c3.8,0.7,16.9,2.4,22.1-8C270,192.1,272.7,177.7,254.5,166.6z"/>
	<path fill="#FFFFFF" d="M198.2,125.5c0,0,2.5,1.1,4.7-0.6s4.5-6.2,0.1-7.5l-1,1.4c0,0,1.9,0.9,1.2,2.9c-0.7,2-2.4,2.2-3.4,1.4
		L198.2,125.5z"/>
	<path fill="#FFFFFF" d="M186.1,172.1c0,0-3.6-6.1-9.8-6.1c-6.2,0-10.6,4.6-10.6,10.7c0,6.1,3.7,12.6,11.6,17
		c7.8,4.3,15.6,4.9,20.5,4c5-0.9,10.6-3,13.6-9.5c0,0-7.5,2.3-16.5-0.5C186,184.8,182.6,179.3,186.1,172.1z"/>
	<path fill="#FFFFFF" d="M220.6,181.7c0,0,6.5-7.2,10.7-12.9c0,0,7.9,8.5,13.9,13.1s8.5,5.2,10.4,3.3c1.9-1.9,1.6-8,1.3-9.3
		c0,0,5.5,3.8,7.1,9.6c1.6,5.8-1.9,10.2-7.7,11c-5.8,0.8-14.8-1.6-19.4-4.2C232.5,189.7,223.9,184.3,220.6,181.7z"/>
	<path fill="#FFFFFF" d="M156.6,119.5l-0.9-2.7c0,0-3.2,0-3.9,2.7c-0.8,2.7,1.8,5.4,3.7,5.9c1.9,0.5,3.5,0.7,6.1,0l-2-1.8
		c0,0-2.2,1.5-3.9,0.1C154.1,122.3,155,120.3,156.6,119.5z"/>
	<path fill="#D1D3D5" d="M204.3,109.1c0,0,0.8-5.3-6.1-7.2c0,0-1.9-3.9-5.3-3.7s-5.5,4.4-5.7,9.3c0,0-7.6-5.8-13,4.2
		c0,0-1.2-10.7-11.1-15c-1.7-0.7-5.4-1.3-8-0.1c-2.7,1.2-2.7,1.3-4,1.7c-1.3,0.5-8.5,3.1-11,10.4c0,0,3.4-4.8,7.7-6.1
		c4.3-1.3,7.9,0,9.3,0.7c1.3,0.7,1.6,1.4,1.8,2.8c0.2,1.4,1.1,7.2,2,10.3c0.9,3.1,5.5,6.4,8.8,8.2c0,0-0.3,8-6.1,12.6
		s-9.9,5.8-12.7,8.2c-2.8,2.4-3.8,6-3.4,10.6s1.7,9.5,2.1,12c0,0-5.3-4-7.6-7.4c0,0-0.9,7.4,2,15.1c2.9,7.7,10.6,12,18.9,12.1
		c0,0-7.7-6.2-4.5-15.8c3.2-9.6,12.1-11.7,16.5-11.2c4.4,0.6,4.8,2.3,12.9,4.5c4.3,0.9,5.2,0.8,5.9,0.8c0,0,2.9-2.5,4.1-4.1
		c0,0-1.1-2.5-1.5-6.4c0,0,2.1,2.1,3.9,3.4c0,0,5.7-3.6,8.7-7.5l-3-5.5l5.3,2.7c0,0,2.8-3.3,5-10.1l-3.2-3.7l4.3,0.1l2.1-9.7
		l-3.2-2.4l3.8-0.8l1.6-9.1l-3.2-2.2l3.6-0.9c0,0,0.3-7.5,0.3-11.1l-3.1-0.6l2.8-2.3c0,0-0.7-5.5-3.9-10.5c0,0-2.8,0.4-4,0.9l2-3.4
		c0,0-2.9-3.4-8.7-6.1l-3,1.5l0.2-3c0,0-8.8-4.3-12.2-9.6c-3.4-5.3-3.2-10.5-2.3-14.8c1-4.3,6.1-10.4,9-12.2s2.6-1.3,3.9-2.3
		c1.3-1,4.2-3.9,5.2-7.1s-0.2-7-1.4-7.3c-1.2-0.3-3.3-0.3-4.5,2.4s-2.7,6.2-5.3,9.3c0,0-6.2,0.9-10.3,7.9s-4.8,17-1.8,24.2
		c3,7.2,9.3,11.2,16.2,14.5c6.9,3.2,10.4,6.3,12.1,13.3s-0.9,17.4-2.4,22.3c-1.5,4.9-4.1,11.9-5.8,18.7c0,0-1.6-0.3-4-2.3
		s-6.4-2.1-9.9-1.6c-3.6,0.6-9.1,3.7-13.2,10.5c0,0,1.4-8.7,5-14.3c3.6-5.6,8.9-5,12.6-2.4c1.3,1,1.8,1,0.8-0.4
		c-1-1.4-4.2-5.7-7.6-6.7s-6.7,1.6-8.7,5.1c0,0,0.1-6.7,2.9-9.6c2.8-2.8,6.4-0.6,8.6,1.7s4.4,5.6,4.4,5.6s3.2-2.7,4-5.4
		c0.8-2.7,0.2-5.7,1.3-7.6S203.3,106.8,204.3,109.1z"/>
	<path fill="#D1D3D5" d="M201.9,193.1c0,0-8.8,4.4-18.9,0c-10.1-4.4-14.7-12.3-14.3-16.3c0.3-4,2.6-5.5,4.9-5.8c0,0-1.2,6.5,2.9,12
		C180.5,188.5,187.7,193.5,201.9,193.1z"/>
	<path fill="#D1D3D5" d="M225.2,181.7l3.1-3.4c0,0,8.3,7.4,16.5,10.9s12.3,2.7,14.2,0s1.1-6.6,0.8-7.4c0,0,1.9,2.8,1.6,6.9
		s-4.8,6.1-9.2,5.6S238.5,191.9,225.2,181.7z"/>
	<path fill="#D1D3D5" d="M138.8,235.1c0,0,10.6,9.7,16,28.5c0,0,19.6-11.2,30.7-36.7c0,0-4,6.4-11.6,8.3c-7.6,1.8-16-2.5-17.5-4
		c0,0,0.1,6.9,5.1,10.9C161.5,241.9,153.3,244.2,138.8,235.1z"/>
	<path fill="#D1D3D5" d="M104.9,162.6c0,0-4.2-2.8-13.7-5.7s-24.2-6.2-34.5-6c0,0,11.7-5.9,40.6-2.6c0,0-19.6-10-49.5-7.6
		c0,0,9-6.8,33.5-4.5c3.5,0.3,19.4,2.3,25.9,7.6c6.4,5.3,23.6,21.6,23.6,33.8c0,4.8-0.3,7.6-3.7,12.1s-13.9,15.8-25.8,19.7
		c-2.3,0.7-5.2,1.3-8.3-1.5c-3.2-2.8-10.4-10.2-23.4-27.6c-0.7-1-1.1-1.7-1.5-2.8S61.8,161,61.8,161S73,154.9,104.9,162.6z"/>
	<path fill="#D1D3D5" d="M79.6,102.6c0,0,6.5-4.4,14.5-6.4c8-2,17.7-2.3,36,6.9c0,0-2.6,5.4-1.8,11.9c0,0-2.1,1.5-12.2-3.6
		c-10.1-5.1-12.3-8-20-10S82.6,101.6,79.6,102.6z"/>
	<path fill="#D1D3D5" d="M145.4,120.8c0,0-1,3.7,1.7,7.3c2.7,3.6,7,5.9,11.5,5.7c0,0-3.3,3.5-10.7,1.3c-7.4-2.1-10-6.9-9.4-9.5
		C139.1,123.2,143,121.2,145.4,120.8z"/>
	<path fill="#D1D3D5" d="M204.3,40.4c0,0,2.2,1.1,5.2,1.2c3,0.1,6-1,6.6-2.9c0,0,2.7,0.3,4.1,1.9c0,0-0.5,2.4-5.3,3.7
		C210.1,45.6,205.5,43.5,204.3,40.4z"/>
</g>
</svg>
